<?xml version='1.0' encoding='UTF-8'?>
<svg width="39.2mm" height="39.2mm" version="1.1" viewBox="0 0 39.2 39.2" xmlns="http://www.w3.org/2000/svg"><path d="M3.2,3.2H4V4H3.2zM4,3.2H4.8V4H4zM4.8,3.2H5.6V4H4.8zM5.6,3.2H6.4V4H5.6zM6.4,3.2H7.2V4H6.4zM7.2,3.2H8V4H7.2zM8,3.2H8.8V4H8zM9.6,3.2H10.4V4H9.6zM11.2,3.2H12V4H11.2zM12,3.2H12.8V4H12zM13.6,3.2H14.4V4H13.6zM15.2,3.2H16V4H15.2zM16.8,3.2H17.6V4H16.8zM18.4,3.2H19.2V4H18.4zM20.8,3.2H21.6V4H20.8zM24.8,3.2H25.6V4H24.8zM25.6,3.2H26.4V4H25.6zM27.2,3.2H28V4H27.2zM28.8,3.2H29.6V4H28.8zM30.4,3.2H31.2V4H30.4zM31.2,3.2H32V4H31.2zM32,3.2H32.8V4H32zM32.8,3.2H33.6V4H32.8zM33.6,3.2H34.4V4H33.6zM34.4,3.2H35.2V4H34.4zM35.2,3.2H36V4H35.2zM3.2,4H4V4.8H3.2zM8,4H8.8V4.8H8zM10.4,4H11.2V4.8H10.4zM11.2,4H12V4.8H11.2zM13.6,4H14.4V4.8H13.6zM15.2,4H16V4.8H15.2zM16,4H16.8V4.8H16zM16.8,4H17.6V4.8H16.8zM18.4,4H19.2V4.8H18.4zM19.2,4H20V4.8H19.2zM25.6,4H26.4V4.8H25.6zM27.2,4H28V4.8H27.2zM28,4H28.8V4.8H28zM30.4,4H31.2V4.8H30.4zM35.2,4H36V4.8H35.2zM3.2,4.8H4V5.6H3.2zM4.8,4.8H5.6V5.6H4.8zM5.6,4.8H6.4V5.6H5.6zM6.4,4.8H7.2V5.6H6.4zM8,4.8H8.8V5.6H8zM12.8,4.8H13.6V5.6H12.8zM13.6,4.8H14.4V5.6H13.6zM15.2,4.8H16V5.6H15.2zM16,4.8H16.8V5.6H16zM19.2,4.8H20V5.6H19.2zM20,4.8H20.8V5.6H20zM22.4,4.8H23.2V5.6H22.4zM23.2,4.8H24V5.6H23.2zM24.8,4.8H25.6V5.6H24.8zM26.4,4.8H27.2V5.6H26.4zM27.2,4.8H28V5.6H27.2zM30.4,4.8H31.2V5.6H30.4zM32,4.8H32.8V5.6H32zM32.8,4.8H33.6V5.6H32.8zM33.6,4.8H34.4V5.6H33.6zM35.2,4.8H36V5.6H35.2zM3.2,5.6H4V6.4H3.2zM4.8,5.6H5.6V6.4H4.8zM5.6,5.6H6.4V6.4H5.6zM6.4,5.6H7.2V6.4H6.4zM8,5.6H8.8V6.4H8zM9.6,5.6H10.4V6.4H9.6zM10.4,5.6H11.2V6.4H10.4zM11.2,5.6H12V6.4H11.2zM12.8,5.6H13.6V6.4H12.8zM13.6,5.6H14.4V6.4H13.6zM14.4,5.6H15.2V6.4H14.4zM16,5.6H16.8V6.4H16zM16.8,5.6H17.6V6.4H16.8zM17.6,5.6H18.4V6.4H17.6zM19.2,5.6H20V6.4H19.2zM20,5.6H20.8V6.4H20zM20.8,5.6H21.6V6.4H20.8zM24,5.6H24.8V6.4H24zM25.6,5.6H26.4V6.4H25.6zM26.4,5.6H27.2V6.4H26.4zM30.4,5.6H31.2V6.4H30.4zM32,5.6H32.8V6.4H32zM32.8,5.6H33.6V6.4H32.8zM33.6,5.6H34.4V6.4H33.6zM35.2,5.6H36V6.4H35.2zM3.2,6.4H4V7.2H3.2zM4.8,6.4H5.6V7.2H4.8zM5.6,6.4H6.4V7.2H5.6zM6.4,6.4H7.2V7.2H6.4zM8,6.4H8.8V7.2H8zM9.6,6.4H10.4V7.2H9.6zM11.2,6.4H12V7.2H11.2zM12,6.4H12.8V7.2H12zM12.8,6.4H13.6V7.2H12.8zM13.6,6.4H14.4V7.2H13.6zM14.4,6.4H15.2V7.2H14.4zM16,6.4H16.8V7.2H16zM17.6,6.4H18.4V7.2H17.6zM20,6.4H20.8V7.2H20zM20.8,6.4H21.6V7.2H20.8zM21.6,6.4H22.4V7.2H21.6zM23.2,6.4H24V7.2H23.2zM24,6.4H24.8V7.2H24zM24.8,6.4H25.6V7.2H24.8zM25.6,6.4H26.4V7.2H25.6zM30.4,6.4H31.2V7.2H30.4zM32,6.4H32.8V7.2H32zM32.8,6.4H33.6V7.2H32.8zM33.6,6.4H34.4V7.2H33.6zM35.2,6.4H36V7.2H35.2zM3.2,7.2H4V8H3.2zM8,7.2H8.8V8H8zM9.6,7.2H10.4V8H9.6zM11.2,7.2H12V8H11.2zM12,7.2H12.8V8H12zM12.8,7.2H13.6V8H12.8zM16,7.2H16.8V8H16zM16.8,7.2H17.6V8H16.8zM17.6,7.2H18.4V8H17.6zM18.4,7.2H19.2V8H18.4zM20,7.2H20.8V8H20zM20.8,7.2H21.6V8H20.8zM22.4,7.2H23.2V8H22.4zM24,7.2H24.8V8H24zM26.4,7.2H27.2V8H26.4zM28,7.2H28.8V8H28zM30.4,7.2H31.2V8H30.4zM35.2,7.2H36V8H35.2zM3.2,8H4V8.8H3.2zM4,8H4.8V8.8H4zM4.8,8H5.6V8.8H4.8zM5.6,8H6.4V8.8H5.6zM6.4,8H7.2V8.8H6.4zM7.2,8H8V8.8H7.2zM8,8H8.8V8.8H8zM9.6,8H10.4V8.8H9.6zM11.2,8H12V8.8H11.2zM12.8,8H13.6V8.8H12.8zM14.4,8H15.2V8.8H14.4zM16,8H16.8V8.8H16zM17.6,8H18.4V8.8H17.6zM19.2,8H20V8.8H19.2zM20.8,8H21.6V8.8H20.8zM22.4,8H23.2V8.8H22.4zM24,8H24.8V8.8H24zM25.6,8H26.4V8.8H25.6zM27.2,8H28V8.8H27.2zM28.8,8H29.6V8.8H28.8zM30.4,8H31.2V8.8H30.4zM31.2,8H32V8.8H31.2zM32,8H32.8V8.8H32zM32.8,8H33.6V8.8H32.8zM33.6,8H34.4V8.8H33.6zM34.4,8H35.2V8.8H34.4zM35.2,8H36V8.8H35.2zM9.6,8.8H10.4V9.6H9.6zM10.4,8.8H11.2V9.6H10.4zM11.2,8.8H12V9.6H11.2zM12.8,8.8H13.6V9.6H12.8zM15.2,8.8H16V9.6H15.2zM16.8,8.8H17.6V9.6H16.8zM17.6,8.8H18.4V9.6H17.6zM18.4,8.8H19.2V9.6H18.4zM19.2,8.8H20V9.6H19.2zM20,8.8H20.8V9.6H20zM25.6,8.8H26.4V9.6H25.6zM26.4,8.8H27.2V9.6H26.4zM27.2,8.8H28V9.6H27.2zM28,8.8H28.8V9.6H28zM3.2,9.6H4V10.4H3.2zM6.4,9.6H7.2V10.4H6.4zM8,9.6H8.8V10.4H8zM8.8,9.6H9.6V10.4H8.8zM9.6,9.6H10.4V10.4H9.6zM12,9.6H12.8V10.4H12zM13.6,9.6H14.4V10.4H13.6zM14.4,9.6H15.2V10.4H14.4zM16,9.6H16.8V10.4H16zM16.8,9.6H17.6V10.4H16.8zM19.2,9.6H20V10.4H19.2zM20,9.6H20.8V10.4H20zM20.8,9.6H21.6V10.4H20.8zM22.4,9.6H23.2V10.4H22.4zM24,9.6H24.8V10.4H24zM26.4,9.6H27.2V10.4H26.4zM28,9.6H28.8V10.4H28zM28.8,9.6H29.6V10.4H28.8zM29.6,9.6H30.4V10.4H29.6zM30.4,9.6H31.2V10.4H30.4zM31.2,9.6H32V10.4H31.2zM32,9.6H32.8V10.4H32zM32.8,9.6H33.6V10.4H32.8zM35.2,9.6H36V10.4H35.2zM3.2,10.4H4V11.2H3.2zM4.8,10.4H5.6V11.2H4.8zM6.4,10.4H7.2V11.2H6.4zM7.2,10.4H8V11.2H7.2zM8.8,10.4H9.6V11.2H8.8zM9.6,10.4H10.4V11.2H9.6zM10.4,10.4H11.2V11.2H10.4zM12,10.4H12.8V11.2H12zM12.8,10.4H13.6V11.2H12.8zM13.6,10.4H14.4V11.2H13.6zM15.2,10.4H16V11.2H15.2zM16,10.4H16.8V11.2H16zM17.6,10.4H18.4V11.2H17.6zM21.6,10.4H22.4V11.2H21.6zM22.4,10.4H23.2V11.2H22.4zM23.2,10.4H24V11.2H23.2zM24,10.4H24.8V11.2H24zM24.8,10.4H25.6V11.2H24.8zM25.6,10.4H26.4V11.2H25.6zM26.4,10.4H27.2V11.2H26.4zM27.2,10.4H28V11.2H27.2zM30.4,10.4H31.2V11.2H30.4zM31.2,10.4H32V11.2H31.2zM32,10.4H32.8V11.2H32zM32.8,10.4H33.6V11.2H32.8zM3.2,11.2H4V12H3.2zM4,11.2H4.8V12H4zM4.8,11.2H5.6V12H4.8zM6.4,11.2H7.2V12H6.4zM7.2,11.2H8V12H7.2zM8,11.2H8.8V12H8zM9.6,11.2H10.4V12H9.6zM11.2,11.2H12V12H11.2zM12,11.2H12.8V12H12zM12.8,11.2H13.6V12H12.8zM13.6,11.2H14.4V12H13.6zM14.4,11.2H15.2V12H14.4zM20.8,11.2H21.6V12H20.8zM21.6,11.2H22.4V12H21.6zM22.4,11.2H23.2V12H22.4zM24,11.2H24.8V12H24zM24.8,11.2H25.6V12H24.8zM26.4,11.2H27.2V12H26.4zM28.8,11.2H29.6V12H28.8zM30.4,11.2H31.2V12H30.4zM32,11.2H32.8V12H32zM35.2,11.2H36V12H35.2zM4.8,12H5.6V12.8H4.8zM5.6,12H6.4V12.8H5.6zM6.4,12H7.2V12.8H6.4zM7.2,12H8V12.8H7.2zM12.8,12H13.6V12.8H12.8zM13.6,12H14.4V12.8H13.6zM16,12H16.8V12.8H16zM16.8,12H17.6V12.8H16.8zM18.4,12H19.2V12.8H18.4zM19.2,12H20V12.8H19.2zM20,12H20.8V12.8H20zM21.6,12H22.4V12.8H21.6zM22.4,12H23.2V12.8H22.4zM24,12H24.8V12.8H24zM24.8,12H25.6V12.8H24.8zM26.4,12H27.2V12.8H26.4zM28,12H28.8V12.8H28zM28.8,12H29.6V12.8H28.8zM29.6,12H30.4V12.8H29.6zM30.4,12H31.2V12.8H30.4zM32,12H32.8V12.8H32zM32.8,12H33.6V12.8H32.8zM34.4,12H35.2V12.8H34.4zM3.2,12.8H4V13.6H3.2zM5.6,12.8H6.4V13.6H5.6zM8,12.8H8.8V13.6H8zM8.8,12.8H9.6V13.6H8.8zM9.6,12.8H10.4V13.6H9.6zM10.4,12.8H11.2V13.6H10.4zM11.2,12.8H12V13.6H11.2zM13.6,12.8H14.4V13.6H13.6zM14.4,12.8H15.2V13.6H14.4zM16.8,12.8H17.6V13.6H16.8zM20,12.8H20.8V13.6H20zM20.8,12.8H21.6V13.6H20.8zM21.6,12.8H22.4V13.6H21.6zM22.4,12.8H23.2V13.6H22.4zM25.6,12.8H26.4V13.6H25.6zM26.4,12.8H27.2V13.6H26.4zM28.8,12.8H29.6V13.6H28.8zM31.2,12.8H32V13.6H31.2zM3.2,13.6H4V14.4H3.2zM4,13.6H4.8V14.4H4zM8.8,13.6H9.6V14.4H8.8zM9.6,13.6H10.4V14.4H9.6zM10.4,13.6H11.2V14.4H10.4zM12.8,13.6H13.6V14.4H12.8zM14.4,13.6H15.2V14.4H14.4zM15.2,13.6H16V14.4H15.2zM16,13.6H16.8V14.4H16zM16.8,13.6H17.6V14.4H16.8zM18.4,13.6H19.2V14.4H18.4zM19.2,13.6H20V14.4H19.2zM23.2,13.6H24V14.4H23.2zM26.4,13.6H27.2V14.4H26.4zM27.2,13.6H28V14.4H27.2zM28,13.6H28.8V14.4H28zM31.2,13.6H32V14.4H31.2zM32,13.6H32.8V14.4H32zM32.8,13.6H33.6V14.4H32.8zM33.6,13.6H34.4V14.4H33.6zM35.2,13.6H36V14.4H35.2zM5.6,14.4H6.4V15.2H5.6zM8,14.4H8.8V15.2H8zM10.4,14.4H11.2V15.2H10.4zM11.2,14.4H12V15.2H11.2zM12,14.4H12.8V15.2H12zM13.6,14.4H14.4V15.2H13.6zM14.4,14.4H15.2V15.2H14.4zM15.2,14.4H16V15.2H15.2zM17.6,14.4H18.4V15.2H17.6zM19.2,14.4H20V15.2H19.2zM20.8,14.4H21.6V15.2H20.8zM23.2,14.4H24V15.2H23.2zM24.8,14.4H25.6V15.2H24.8zM27.2,14.4H28V15.2H27.2zM28,14.4H28.8V15.2H28zM29.6,14.4H30.4V15.2H29.6zM30.4,14.4H31.2V15.2H30.4zM32,14.4H32.8V15.2H32zM32.8,14.4H33.6V15.2H32.8zM33.6,14.4H34.4V15.2H33.6zM34.4,14.4H35.2V15.2H34.4zM35.2,14.4H36V15.2H35.2zM3.2,15.2H4V16H3.2zM4.8,15.2H5.6V16H4.8zM6.4,15.2H7.2V16H6.4zM7.2,15.2H8V16H7.2zM9.6,15.2H10.4V16H9.6zM10.4,15.2H11.2V16H10.4zM11.2,15.2H12V16H11.2zM12,15.2H12.8V16H12zM12.8,15.2H13.6V16H12.8zM13.6,15.2H14.4V16H13.6zM14.4,15.2H15.2V16H14.4zM15.2,15.2H16V16H15.2zM16.8,15.2H17.6V16H16.8zM17.6,15.2H18.4V16H17.6zM20,15.2H20.8V16H20zM22.4,15.2H23.2V16H22.4zM24.8,15.2H25.6V16H24.8zM25.6,15.2H26.4V16H25.6zM26.4,15.2H27.2V16H26.4zM28,15.2H28.8V16H28zM28.8,15.2H29.6V16H28.8zM32.8,15.2H33.6V16H32.8zM34.4,15.2H35.2V16H34.4zM35.2,15.2H36V16H35.2zM3.2,16H4V16.8H3.2zM4,16H4.8V16.8H4zM6.4,16H7.2V16.8H6.4zM8,16H8.8V16.8H8zM9.6,16H10.4V16.8H9.6zM10.4,16H11.2V16.8H10.4zM11.2,16H12V16.8H11.2zM12.8,16H13.6V16.8H12.8zM15.2,16H16V16.8H15.2zM18.4,16H19.2V16.8H18.4zM20.8,16H21.6V16.8H20.8zM21.6,16H22.4V16.8H21.6zM22.4,16H23.2V16.8H22.4zM26.4,16H27.2V16.8H26.4zM27.2,16H28V16.8H27.2zM31.2,16H32V16.8H31.2zM32.8,16H33.6V16.8H32.8zM34.4,16H35.2V16.8H34.4zM35.2,16H36V16.8H35.2zM3.2,16.8H4V17.6H3.2zM4,16.8H4.8V17.6H4zM4.8,16.8H5.6V17.6H4.8zM6.4,16.8H7.2V17.6H6.4zM7.2,16.8H8V17.6H7.2zM8.8,16.8H9.6V17.6H8.8zM9.6,16.8H10.4V17.6H9.6zM10.4,16.8H11.2V17.6H10.4zM11.2,16.8H12V17.6H11.2zM12,16.8H12.8V17.6H12zM12.8,16.8H13.6V17.6H12.8zM13.6,16.8H14.4V17.6H13.6zM15.2,16.8H16V17.6H15.2zM17.6,16.8H18.4V17.6H17.6zM18.4,16.8H19.2V17.6H18.4zM20,16.8H20.8V17.6H20zM20.8,16.8H21.6V17.6H20.8zM21.6,16.8H22.4V17.6H21.6zM22.4,16.8H23.2V17.6H22.4zM23.2,16.8H24V17.6H23.2zM24,16.8H24.8V17.6H24zM24.8,16.8H25.6V17.6H24.8zM26.4,16.8H27.2V17.6H26.4zM28.8,16.8H29.6V17.6H28.8zM29.6,16.8H30.4V17.6H29.6zM30.4,16.8H31.2V17.6H30.4zM31.2,16.8H32V17.6H31.2zM32,16.8H32.8V17.6H32zM34.4,16.8H35.2V17.6H34.4zM35.2,16.8H36V17.6H35.2zM4,17.6H4.8V18.4H4zM4.8,17.6H5.6V18.4H4.8zM6.4,17.6H7.2V18.4H6.4zM8,17.6H8.8V18.4H8zM8.8,17.6H9.6V18.4H8.8zM12,17.6H12.8V18.4H12zM12.8,17.6H13.6V18.4H12.8zM15.2,17.6H16V18.4H15.2zM16.8,17.6H17.6V18.4H16.8zM21.6,17.6H22.4V18.4H21.6zM22.4,17.6H23.2V18.4H22.4zM24.8,17.6H25.6V18.4H24.8zM25.6,17.6H26.4V18.4H25.6zM27.2,17.6H28V18.4H27.2zM30.4,17.6H31.2V18.4H30.4zM31.2,17.6H32V18.4H31.2zM32.8,17.6H33.6V18.4H32.8zM33.6,17.6H34.4V18.4H33.6zM34.4,17.6H35.2V18.4H34.4zM35.2,17.6H36V18.4H35.2zM3.2,18.4H4V19.2H3.2zM6.4,18.4H7.2V19.2H6.4zM8.8,18.4H9.6V19.2H8.8zM11.2,18.4H12V19.2H11.2zM12.8,18.4H13.6V19.2H12.8zM14.4,18.4H15.2V19.2H14.4zM16.8,18.4H17.6V19.2H16.8zM17.6,18.4H18.4V19.2H17.6zM18.4,18.4H19.2V19.2H18.4zM20.8,18.4H21.6V19.2H20.8zM21.6,18.4H22.4V19.2H21.6zM24,18.4H24.8V19.2H24zM24.8,18.4H25.6V19.2H24.8zM25.6,18.4H26.4V19.2H25.6zM28,18.4H28.8V19.2H28zM28.8,18.4H29.6V19.2H28.8zM30.4,18.4H31.2V19.2H30.4zM31.2,18.4H32V19.2H31.2zM32.8,18.4H33.6V19.2H32.8zM6.4,19.2H7.2V20H6.4zM7.2,19.2H8V20H7.2zM8,19.2H8.8V20H8zM11.2,19.2H12V20H11.2zM13.6,19.2H14.4V20H13.6zM14.4,19.2H15.2V20H14.4zM15.2,19.2H16V20H15.2zM17.6,19.2H18.4V20H17.6zM18.4,19.2H19.2V20H18.4zM19.2,19.2H20V20H19.2zM20.8,19.2H21.6V20H20.8zM23.2,19.2H24V20H23.2zM24,19.2H24.8V20H24zM25.6,19.2H26.4V20H25.6zM28,19.2H28.8V20H28zM28.8,19.2H29.6V20H28.8zM29.6,19.2H30.4V20H29.6zM32.8,19.2H33.6V20H32.8zM3.2,20H4V20.8H3.2zM4,20H4.8V20.8H4zM4.8,20H5.6V20.8H4.8zM5.6,20H6.4V20.8H5.6zM7.2,20H8V20.8H7.2zM9.6,20H10.4V20.8H9.6zM10.4,20H11.2V20.8H10.4zM11.2,20H12V20.8H11.2zM12,20H12.8V20.8H12zM14.4,20H15.2V20.8H14.4zM16.8,20H17.6V20.8H16.8zM21.6,20H22.4V20.8H21.6zM24.8,20H25.6V20.8H24.8zM25.6,20H26.4V20.8H25.6zM26.4,20H27.2V20.8H26.4zM27.2,20H28V20.8H27.2zM30.4,20H31.2V20.8H30.4zM31.2,20H32V20.8H31.2zM32,20H32.8V20.8H32zM33.6,20H34.4V20.8H33.6zM35.2,20H36V20.8H35.2zM3.2,20.8H4V21.6H3.2zM4.8,20.8H5.6V21.6H4.8zM6.4,20.8H7.2V21.6H6.4zM8,20.8H8.8V21.6H8zM14.4,20.8H15.2V21.6H14.4zM15.2,20.8H16V21.6H15.2zM16,20.8H16.8V21.6H16zM16.8,20.8H17.6V21.6H16.8zM21.6,20.8H22.4V21.6H21.6zM22.4,20.8H23.2V21.6H22.4zM23.2,20.8H24V21.6H23.2zM24,20.8H24.8V21.6H24zM24.8,20.8H25.6V21.6H24.8zM26.4,20.8H27.2V21.6H26.4zM29.6,20.8H30.4V21.6H29.6zM30.4,20.8H31.2V21.6H30.4zM32.8,20.8H33.6V21.6H32.8zM35.2,20.8H36V21.6H35.2zM3.2,21.6H4V22.4H3.2zM5.6,21.6H6.4V22.4H5.6zM6.4,21.6H7.2V22.4H6.4zM7.2,21.6H8V22.4H7.2zM8.8,21.6H9.6V22.4H8.8zM12,21.6H12.8V22.4H12zM12.8,21.6H13.6V22.4H12.8zM14.4,21.6H15.2V22.4H14.4zM16.8,21.6H17.6V22.4H16.8zM20,21.6H20.8V22.4H20zM21.6,21.6H22.4V22.4H21.6zM24.8,21.6H25.6V22.4H24.8zM26.4,21.6H27.2V22.4H26.4zM27.2,21.6H28V22.4H27.2zM28,21.6H28.8V22.4H28zM28.8,21.6H29.6V22.4H28.8zM29.6,21.6H30.4V22.4H29.6zM32,21.6H32.8V22.4H32zM35.2,21.6H36V22.4H35.2zM3.2,22.4H4V23.2H3.2zM4,22.4H4.8V23.2H4zM5.6,22.4H6.4V23.2H5.6zM6.4,22.4H7.2V23.2H6.4zM7.2,22.4H8V23.2H7.2zM8,22.4H8.8V23.2H8zM9.6,22.4H10.4V23.2H9.6zM12.8,22.4H13.6V23.2H12.8zM18.4,22.4H19.2V23.2H18.4zM19.2,22.4H20V23.2H19.2zM20,22.4H20.8V23.2H20zM20.8,22.4H21.6V23.2H20.8zM22.4,22.4H23.2V23.2H22.4zM24.8,22.4H25.6V23.2H24.8zM25.6,22.4H26.4V23.2H25.6zM26.4,22.4H27.2V23.2H26.4zM28.8,22.4H29.6V23.2H28.8zM32.8,22.4H33.6V23.2H32.8zM34.4,22.4H35.2V23.2H34.4zM4.8,23.2H5.6V24H4.8zM8.8,23.2H9.6V24H8.8zM11.2,23.2H12V24H11.2zM12,23.2H12.8V24H12zM12.8,23.2H13.6V24H12.8zM17.6,23.2H18.4V24H17.6zM20,23.2H20.8V24H20zM20.8,23.2H21.6V24H20.8zM21.6,23.2H22.4V24H21.6zM23.2,23.2H24V24H23.2zM24,23.2H24.8V24H24zM24.8,23.2H25.6V24H24.8zM25.6,23.2H26.4V24H25.6zM26.4,23.2H27.2V24H26.4zM28.8,23.2H29.6V24H28.8zM30.4,23.2H31.2V24H30.4zM31.2,23.2H32V24H31.2zM32,23.2H32.8V24H32zM33.6,23.2H34.4V24H33.6zM34.4,23.2H35.2V24H34.4zM6.4,24H7.2V24.8H6.4zM7.2,24H8V24.8H7.2zM8,24H8.8V24.8H8zM8.8,24H9.6V24.8H8.8zM12,24H12.8V24.8H12zM13.6,24H14.4V24.8H13.6zM14.4,24H15.2V24.8H14.4zM16.8,24H17.6V24.8H16.8zM17.6,24H18.4V24.8H17.6zM20,24H20.8V24.8H20zM20.8,24H21.6V24.8H20.8zM21.6,24H22.4V24.8H21.6zM22.4,24H23.2V24.8H22.4zM23.2,24H24V24.8H23.2zM24.8,24H25.6V24.8H24.8zM25.6,24H26.4V24.8H25.6zM27.2,24H28V24.8H27.2zM28.8,24H29.6V24.8H28.8zM31.2,24H32V24.8H31.2zM35.2,24H36V24.8H35.2zM3.2,24.8H4V25.6H3.2zM4.8,24.8H5.6V25.6H4.8zM5.6,24.8H6.4V25.6H5.6zM6.4,24.8H7.2V25.6H6.4zM7.2,24.8H8V25.6H7.2zM9.6,24.8H10.4V25.6H9.6zM14.4,24.8H15.2V25.6H14.4zM15.2,24.8H16V25.6H15.2zM16,24.8H16.8V25.6H16zM16.8,24.8H17.6V25.6H16.8zM18.4,24.8H19.2V25.6H18.4zM19.2,24.8H20V25.6H19.2zM20,24.8H20.8V25.6H20zM20.8,24.8H21.6V25.6H20.8zM22.4,24.8H23.2V25.6H22.4zM24,24.8H24.8V25.6H24zM24.8,24.8H25.6V25.6H24.8zM25.6,24.8H26.4V25.6H25.6zM26.4,24.8H27.2V25.6H26.4zM27.2,24.8H28V25.6H27.2zM28,24.8H28.8V25.6H28zM28.8,24.8H29.6V25.6H28.8zM29.6,24.8H30.4V25.6H29.6zM32,24.8H32.8V25.6H32zM32.8,24.8H33.6V25.6H32.8zM35.2,24.8H36V25.6H35.2zM4,25.6H4.8V26.4H4zM4.8,25.6H5.6V26.4H4.8zM5.6,25.6H6.4V26.4H5.6zM7.2,25.6H8V26.4H7.2zM8,25.6H8.8V26.4H8zM8.8,25.6H9.6V26.4H8.8zM9.6,25.6H10.4V26.4H9.6zM10.4,25.6H11.2V26.4H10.4zM11.2,25.6H12V26.4H11.2zM12,25.6H12.8V26.4H12zM13.6,25.6H14.4V26.4H13.6zM14.4,25.6H15.2V26.4H14.4zM15.2,25.6H16V26.4H15.2zM16.8,25.6H17.6V26.4H16.8zM19.2,25.6H20V26.4H19.2zM20,25.6H20.8V26.4H20zM21.6,25.6H22.4V26.4H21.6zM24.8,25.6H25.6V26.4H24.8zM26.4,25.6H27.2V26.4H26.4zM29.6,25.6H30.4V26.4H29.6zM30.4,25.6H31.2V26.4H30.4zM34.4,25.6H35.2V26.4H34.4zM3.2,26.4H4V27.2H3.2zM4.8,26.4H5.6V27.2H4.8zM5.6,26.4H6.4V27.2H5.6zM8.8,26.4H9.6V27.2H8.8zM9.6,26.4H10.4V27.2H9.6zM10.4,26.4H11.2V27.2H10.4zM11.2,26.4H12V27.2H11.2zM12,26.4H12.8V27.2H12zM12.8,26.4H13.6V27.2H12.8zM13.6,26.4H14.4V27.2H13.6zM14.4,26.4H15.2V27.2H14.4zM16,26.4H16.8V27.2H16zM16.8,26.4H17.6V27.2H16.8zM17.6,26.4H18.4V27.2H17.6zM18.4,26.4H19.2V27.2H18.4zM22.4,26.4H23.2V27.2H22.4zM23.2,26.4H24V27.2H23.2zM24,26.4H24.8V27.2H24zM25.6,26.4H26.4V27.2H25.6zM28,26.4H28.8V27.2H28zM28.8,26.4H29.6V27.2H28.8zM31.2,26.4H32V27.2H31.2zM32,26.4H32.8V27.2H32zM32.8,26.4H33.6V27.2H32.8zM35.2,26.4H36V27.2H35.2zM6.4,27.2H7.2V28H6.4zM8,27.2H8.8V28H8zM8.8,27.2H9.6V28H8.8zM10.4,27.2H11.2V28H10.4zM11.2,27.2H12V28H11.2zM12.8,27.2H13.6V28H12.8zM13.6,27.2H14.4V28H13.6zM15.2,27.2H16V28H15.2zM16.8,27.2H17.6V28H16.8zM18.4,27.2H19.2V28H18.4zM20,27.2H20.8V28H20zM21.6,27.2H22.4V28H21.6zM22.4,27.2H23.2V28H22.4zM23.2,27.2H24V28H23.2zM25.6,27.2H26.4V28H25.6zM26.4,27.2H27.2V28H26.4zM28.8,27.2H29.6V28H28.8zM29.6,27.2H30.4V28H29.6zM32,27.2H32.8V28H32zM32.8,27.2H33.6V28H32.8zM33.6,27.2H34.4V28H33.6zM35.2,27.2H36V28H35.2zM4.8,28H5.6V28.8H4.8zM5.6,28H6.4V28.8H5.6zM6.4,28H7.2V28.8H6.4zM9.6,28H10.4V28.8H9.6zM10.4,28H11.2V28.8H10.4zM12,28H12.8V28.8H12zM15.2,28H16V28.8H15.2zM16.8,28H17.6V28.8H16.8zM18.4,28H19.2V28.8H18.4zM19.2,28H20V28.8H19.2zM20,28H20.8V28.8H20zM20.8,28H21.6V28.8H20.8zM21.6,28H22.4V28.8H21.6zM24,28H24.8V28.8H24zM26.4,28H27.2V28.8H26.4zM29.6,28H30.4V28.8H29.6zM32,28H32.8V28.8H32zM35.2,28H36V28.8H35.2zM3.2,28.8H4V29.6H3.2zM4,28.8H4.8V29.6H4zM4.8,28.8H5.6V29.6H4.8zM7.2,28.8H8V29.6H7.2zM8,28.8H8.8V29.6H8zM12.8,28.8H13.6V29.6H12.8zM13.6,28.8H14.4V29.6H13.6zM14.4,28.8H15.2V29.6H14.4zM15.2,28.8H16V29.6H15.2zM20.8,28.8H21.6V29.6H20.8zM24,28.8H24.8V29.6H24zM24.8,28.8H25.6V29.6H24.8zM25.6,28.8H26.4V29.6H25.6zM26.4,28.8H27.2V29.6H26.4zM27.2,28.8H28V29.6H27.2zM28,28.8H28.8V29.6H28zM28.8,28.8H29.6V29.6H28.8zM29.6,28.8H30.4V29.6H29.6zM30.4,28.8H31.2V29.6H30.4zM31.2,28.8H32V29.6H31.2zM32,28.8H32.8V29.6H32zM32.8,28.8H33.6V29.6H32.8zM9.6,29.6H10.4V30.4H9.6zM10.4,29.6H11.2V30.4H10.4zM12.8,29.6H13.6V30.4H12.8zM16,29.6H16.8V30.4H16zM16.8,29.6H17.6V30.4H16.8zM17.6,29.6H18.4V30.4H17.6zM18.4,29.6H19.2V30.4H18.4zM21.6,29.6H22.4V30.4H21.6zM22.4,29.6H23.2V30.4H22.4zM24,29.6H24.8V30.4H24zM24.8,29.6H25.6V30.4H24.8zM27.2,29.6H28V30.4H27.2zM28.8,29.6H29.6V30.4H28.8zM32,29.6H32.8V30.4H32zM32.8,29.6H33.6V30.4H32.8zM33.6,29.6H34.4V30.4H33.6zM34.4,29.6H35.2V30.4H34.4zM3.2,30.4H4V31.2H3.2zM4,30.4H4.8V31.2H4zM4.8,30.4H5.6V31.2H4.8zM5.6,30.4H6.4V31.2H5.6zM6.4,30.4H7.2V31.2H6.4zM7.2,30.4H8V31.2H7.2zM8,30.4H8.8V31.2H8zM9.6,30.4H10.4V31.2H9.6zM11.2,30.4H12V31.2H11.2zM12.8,30.4H13.6V31.2H12.8zM14.4,30.4H15.2V31.2H14.4zM15.2,30.4H16V31.2H15.2zM16,30.4H16.8V31.2H16zM17.6,30.4H18.4V31.2H17.6zM19.2,30.4H20V31.2H19.2zM20,30.4H20.8V31.2H20zM20.8,30.4H21.6V31.2H20.8zM21.6,30.4H22.4V31.2H21.6zM23.2,30.4H24V31.2H23.2zM24,30.4H24.8V31.2H24zM24.8,30.4H25.6V31.2H24.8zM25.6,30.4H26.4V31.2H25.6zM26.4,30.4H27.2V31.2H26.4zM28,30.4H28.8V31.2H28zM28.8,30.4H29.6V31.2H28.8zM30.4,30.4H31.2V31.2H30.4zM32,30.4H32.8V31.2H32zM33.6,30.4H34.4V31.2H33.6zM35.2,30.4H36V31.2H35.2zM3.2,31.2H4V32H3.2zM8,31.2H8.8V32H8zM12,31.2H12.8V32H12zM16,31.2H16.8V32H16zM20,31.2H20.8V32H20zM22.4,31.2H23.2V32H22.4zM23.2,31.2H24V32H23.2zM26.4,31.2H27.2V32H26.4zM27.2,31.2H28V32H27.2zM28,31.2H28.8V32H28zM28.8,31.2H29.6V32H28.8zM32,31.2H32.8V32H32zM32.8,31.2H33.6V32H32.8zM3.2,32H4V32.8H3.2zM4.8,32H5.6V32.8H4.8zM5.6,32H6.4V32.8H5.6zM6.4,32H7.2V32.8H6.4zM8,32H8.8V32.8H8zM9.6,32H10.4V32.8H9.6zM12,32H12.8V32.8H12zM13.6,32H14.4V32.8H13.6zM14.4,32H15.2V32.8H14.4zM16,32H16.8V32.8H16zM18.4,32H19.2V32.8H18.4zM21.6,32H22.4V32.8H21.6zM22.4,32H23.2V32.8H22.4zM23.2,32H24V32.8H23.2zM24.8,32H25.6V32.8H24.8zM27.2,32H28V32.8H27.2zM28,32H28.8V32.8H28zM28.8,32H29.6V32.8H28.8zM29.6,32H30.4V32.8H29.6zM30.4,32H31.2V32.8H30.4zM31.2,32H32V32.8H31.2zM32,32H32.8V32.8H32zM32.8,32H33.6V32.8H32.8zM34.4,32H35.2V32.8H34.4zM35.2,32H36V32.8H35.2zM3.2,32.8H4V33.6H3.2zM4.8,32.8H5.6V33.6H4.8zM5.6,32.8H6.4V33.6H5.6zM6.4,32.8H7.2V33.6H6.4zM8,32.8H8.8V33.6H8zM10.4,32.8H11.2V33.6H10.4zM11.2,32.8H12V33.6H11.2zM13.6,32.8H14.4V33.6H13.6zM14.4,32.8H15.2V33.6H14.4zM15.2,32.8H16V33.6H15.2zM16,32.8H16.8V33.6H16zM17.6,32.8H18.4V33.6H17.6zM20.8,32.8H21.6V33.6H20.8zM21.6,32.8H22.4V33.6H21.6zM23.2,32.8H24V33.6H23.2zM24,32.8H24.8V33.6H24zM24.8,32.8H25.6V33.6H24.8zM31.2,32.8H32V33.6H31.2zM34.4,32.8H35.2V33.6H34.4zM3.2,33.6H4V34.4H3.2zM4.8,33.6H5.6V34.4H4.8zM5.6,33.6H6.4V34.4H5.6zM6.4,33.6H7.2V34.4H6.4zM8,33.6H8.8V34.4H8zM10.4,33.6H11.2V34.4H10.4zM15.2,33.6H16V34.4H15.2zM16,33.6H16.8V34.4H16zM19.2,33.6H20V34.4H19.2zM20,33.6H20.8V34.4H20zM21.6,33.6H22.4V34.4H21.6zM22.4,33.6H23.2V34.4H22.4zM23.2,33.6H24V34.4H23.2zM24.8,33.6H25.6V34.4H24.8zM26.4,33.6H27.2V34.4H26.4zM27.2,33.6H28V34.4H27.2zM28,33.6H28.8V34.4H28zM28.8,33.6H29.6V34.4H28.8zM29.6,33.6H30.4V34.4H29.6zM33.6,33.6H34.4V34.4H33.6zM35.2,33.6H36V34.4H35.2zM3.2,34.4H4V35.2H3.2zM8,34.4H8.8V35.2H8zM10.4,34.4H11.2V35.2H10.4zM11.2,34.4H12V35.2H11.2zM12.8,34.4H13.6V35.2H12.8zM14.4,34.4H15.2V35.2H14.4zM15.2,34.4H16V35.2H15.2zM16,34.4H16.8V35.2H16zM16.8,34.4H17.6V35.2H16.8zM19.2,34.4H20V35.2H19.2zM20,34.4H20.8V35.2H20zM21.6,34.4H22.4V35.2H21.6zM22.4,34.4H23.2V35.2H22.4zM24,34.4H24.8V35.2H24zM25.6,34.4H26.4V35.2H25.6zM26.4,34.4H27.2V35.2H26.4zM28.8,34.4H29.6V35.2H28.8zM31.2,34.4H32V35.2H31.2zM32.8,34.4H33.6V35.2H32.8zM34.4,34.4H35.2V35.2H34.4zM35.2,34.4H36V35.2H35.2zM3.2,35.2H4V36H3.2zM4,35.2H4.8V36H4zM4.8,35.2H5.6V36H4.8zM5.6,35.2H6.4V36H5.6zM6.4,35.2H7.2V36H6.4zM7.2,35.2H8V36H7.2zM8,35.2H8.8V36H8zM9.6,35.2H10.4V36H9.6zM11.2,35.2H12V36H11.2zM12,35.2H12.8V36H12zM12.8,35.2H13.6V36H12.8zM15.2,35.2H16V36H15.2zM16.8,35.2H17.6V36H16.8zM19.2,35.2H20V36H19.2zM20,35.2H20.8V36H20zM20.8,35.2H21.6V36H20.8zM22.4,35.2H23.2V36H22.4zM26.4,35.2H27.2V36H26.4zM28.8,35.2H29.6V36H28.8zM30.4,35.2H31.2V36H30.4zM31.2,35.2H32V36H31.2zM32,35.2H32.8V36H32zM32.8,35.2H33.6V36H32.8zM34.4,35.2H35.2V36H34.4z" id="qr-path" fill="#000000" fill-opacity="1" fill-rule="nonzero" stroke="none" /></svg>